<svg width="542" height="796" viewBox="0 0 542 796" fill="none" xmlns="http://www.w3.org/2000/svg">
<g filter="url(#filter0_d_136_316)">
<path d="M194.357 86H347.643L346.069 103.877C345.615 109.04 341.291 113 336.108 113H205.892C200.709 113 196.385 109.04 195.931 103.877L194.357 86Z" fill="#171A30"/>
<ellipse cx="271.592" cy="99.721" rx="5.91837" ry="5.71705" fill="#1F233E"/>
<ellipse cx="271.592" cy="99.7208" rx="3.55102" ry="3.43023" fill="#2A2D48"/>
<path d="M416 159C416.552 159 417 159.448 417 160V195C417 195.552 416.552 196 416 196V159Z" fill="#171A30"/>
<path d="M416 213C416.552 213 417 213.448 417 214V249C417 249.552 416.552 250 416 250V213Z" fill="#171A30"/>
<path d="M416 252C416.552 252 417 252.448 417 253V288C417 288.552 416.552 289 416 289V252Z" fill="#171A30"/>
<rect x="125.5" y="85.5" width="291" height="591" rx="30.5" stroke="url(#paint0_linear_136_316)" stroke-opacity="0.25" shape-rendering="crispEdges"/>
</g>
<defs>
<filter id="filter0_d_136_316" x="0" y="0" width="542" height="842" filterUnits="userSpaceOnUse" color-interpolation-filters="sRGB">
<feFlood flood-opacity="0" result="BackgroundImageFix"/>
<feColorMatrix in="SourceAlpha" type="matrix" values="0 0 0 0 0 0 0 0 0 0 0 0 0 0 0 0 0 0 127 0" result="hardAlpha"/>
<feOffset dy="40"/>
<feGaussianBlur stdDeviation="62.5"/>
<feComposite in2="hardAlpha" operator="out"/>
<feColorMatrix type="matrix" values="0 0 0 0 0.0513542 0 0 0 0 0.062934 0 0 0 0 0.120833 0 0 0 0.5 0"/>
<feBlend mode="normal" in2="BackgroundImageFix" result="effect1_dropShadow_136_316"/>
<feBlend mode="normal" in="SourceGraphic" in2="effect1_dropShadow_136_316" result="shape"/>
</filter>
<linearGradient id="paint0_linear_136_316" x1="271" y1="86" x2="271" y2="676" gradientUnits="userSpaceOnUse">
<stop stop-color="white"/>
<stop offset="1" stop-color="white" stop-opacity="0"/>
</linearGradient>
</defs>
</svg>
