<svg width="41" height="41" viewBox="0 0 41 41" fill="none" xmlns="http://www.w3.org/2000/svg">
<path d="M18.9359 0.599667L21.9204 2.58896L25.1748 1.08111L27.3984 3.8953L30.9595 3.4669L32.2047 6.8305L35.7238 7.52349L35.8687 11.1073L39.0014 12.8538L38.0317 16.3069L40.4714 18.936L38.4821 21.9205L39.99 25.1749L37.1758 27.3986L37.6042 30.9596L34.2406 32.2048L33.5476 35.7239L29.9638 35.8688L28.2173 39.0015L24.7642 38.0318L22.135 40.4715L19.1506 38.4822L15.8962 39.9901L13.6725 37.1759L10.1115 37.6043L8.86628 34.2407L5.34717 33.5477L5.20231 29.9639L2.06958 28.2174L3.03925 24.7643L0.599552 22.1352L2.58884 19.1507L1.081 15.8963L3.89518 13.6726L3.46678 10.1116L6.83039 8.8664L7.52337 5.34728L11.1071 5.20242L12.8537 2.06969L16.3068 3.03936L18.9359 0.599667Z" fill="url(#paint0_linear_138_571)"/>
<path d="M18.9359 0.599667L21.9204 2.58896L25.1748 1.08111L27.3984 3.8953L30.9595 3.4669L32.2047 6.8305L35.7238 7.52349L35.8687 11.1073L39.0014 12.8538L38.0317 16.3069L40.4714 18.936L38.4821 21.9205L39.99 25.1749L37.1758 27.3986L37.6042 30.9596L34.2406 32.2048L33.5476 35.7239L29.9638 35.8688L28.2173 39.0015L24.7642 38.0318L22.135 40.4715L19.1506 38.4822L15.8962 39.9901L13.6725 37.1759L10.1115 37.6043L8.86628 34.2407L5.34717 33.5477L5.20231 29.9639L2.06958 28.2174L3.03925 24.7643L0.599552 22.1352L2.58884 19.1507L1.081 15.8963L3.89518 13.6726L3.46678 10.1116L6.83039 8.8664L7.52337 5.34728L11.1071 5.20242L12.8537 2.06969L16.3068 3.03936L18.9359 0.599667Z" fill="url(#paint1_radial_138_571)"/>
<defs>
<linearGradient id="paint0_linear_138_571" x1="-5.86001" y1="-5.07959" x2="52.6455" y2="-6.02793" gradientUnits="userSpaceOnUse">
<stop stop-color="#77B5FF"/>
<stop offset="0.494792" stop-color="#54A2FF"/>
<stop offset="1" stop-color="#3892FD"/>
</linearGradient>
<radialGradient id="paint1_radial_138_571" cx="0" cy="0" r="1" gradientUnits="userSpaceOnUse" gradientTransform="translate(13.5742 -5.79199) rotate(81.8416) scale(45.4883 56.6692)">
<stop stop-color="#A5CEFF"/>
<stop offset="1" stop-color="#3892FD" stop-opacity="0"/>
</radialGradient>
</defs>
</svg>
