<svg width="16" height="16" viewBox="0 0 16 16" fill="none" xmlns="http://www.w3.org/2000/svg">
<path d="M6.76398 2.875C6.94416 2.875 7.11697 2.94414 7.24438 3.06721C7.37179 3.19028 7.44337 3.3572 7.44337 3.53125V9C7.44337 9.11603 7.49109 9.22731 7.57603 9.30936C7.66097 9.39141 7.77618 9.4375 7.8963 9.4375C8.01643 9.4375 8.13163 9.39141 8.21657 9.30936C8.30152 9.22731 8.34923 9.11603 8.34923 9V6.78363L8.42714 6.78012C8.7143 6.76962 9.00417 6.77312 9.16632 6.80375C9.28771 6.82737 9.43264 6.88775 9.57215 6.963C9.6419 6.99975 9.70803 7.09163 9.70803 7.23775V9C9.70803 9.11603 9.75575 9.22731 9.84069 9.30936C9.92563 9.39141 10.0408 9.4375 10.161 9.4375C10.2811 9.4375 10.3963 9.39141 10.4812 9.30936C10.5662 9.22731 10.6139 9.11603 10.6139 9V7.63062C10.6459 7.62737 10.6779 7.62446 10.7099 7.62188C10.9962 7.60088 11.2389 7.61313 11.3513 7.65688C11.4582 7.69712 11.623 7.838 11.7915 8.03312C11.8649 8.11713 11.9274 8.19937 11.9727 8.25975V9.4375C11.9727 9.55353 12.0204 9.66481 12.1053 9.74686C12.1903 9.82891 12.3055 9.875 12.4256 9.875C12.5457 9.875 12.6609 9.82891 12.7459 9.74686C12.8308 9.66481 12.8785 9.55353 12.8785 9.4375V8.5625H13.1883C13.3149 8.5625 13.4401 8.58813 13.5559 8.63774C13.6716 8.68735 13.7752 8.75984 13.8602 8.85053C13.9451 8.94122 14.0094 9.0481 14.0489 9.16427C14.0885 9.28044 14.1023 9.40333 14.0897 9.525L13.8442 11.9006C13.8125 12.2059 13.7146 12.5014 13.557 12.7677L12.2934 14.9045C12.2538 14.9715 12.1965 15.0271 12.1275 15.0658C12.0585 15.1046 11.98 15.125 11.9002 15.125H6.11629C6.0417 15.125 5.96827 15.1071 5.90253 15.0731C5.83679 15.0391 5.78077 14.9899 5.73945 14.9299L4.44135 13.0486C4.32082 12.8742 4.24534 12.6743 4.22122 12.4659L3.9087 9.749C3.89607 9.64011 3.9262 9.53061 3.99312 9.44215C4.06005 9.35369 4.1589 9.2927 4.27014 9.27125L5.17872 9.09625V9.875C5.17872 9.99103 5.22644 10.1023 5.31138 10.1844C5.39632 10.2664 5.51153 10.3125 5.63165 10.3125C5.75178 10.3125 5.86698 10.2664 5.95192 10.1844C6.03686 10.1023 6.08458 9.99103 6.08458 9.875V3.53125C6.08458 3.3572 6.15616 3.19028 6.28357 3.06721C6.41098 2.94414 6.58379 2.875 6.76398 2.875ZM8.34923 5.90775V3.53125C8.34923 3.12514 8.18222 2.73566 7.88492 2.44849C7.58763 2.16133 7.18441 2 6.76398 2C6.34354 2 5.94032 2.16133 5.64303 2.44849C5.34574 2.73566 5.17872 3.12514 5.17872 3.53125V8.20375L4.09169 8.41375C3.75849 8.47828 3.46242 8.66106 3.26187 8.92605C3.06131 9.19104 2.97083 9.519 3.00828 9.84525L3.3208 12.563C3.36099 12.9104 3.48679 13.2435 3.68767 13.5343L4.98577 15.4155C5.10984 15.5953 5.27795 15.7427 5.47516 15.8447C5.67237 15.9466 5.8926 16 6.11629 16H11.9002C12.1397 15.9999 12.3749 15.9387 12.5821 15.8225C12.7892 15.7064 12.9608 15.5394 13.0796 15.3385L14.3433 13.2026C14.5642 12.8293 14.7013 12.4152 14.7455 11.9872L14.991 9.61163C15.0162 9.36835 14.9883 9.12267 14.9092 8.89043C14.8301 8.65819 14.7014 8.44454 14.5316 8.26326C14.3618 8.08198 14.1545 7.93709 13.9231 7.83792C13.6918 7.73875 13.4415 7.68751 13.1883 7.6875H12.662C12.6055 7.61343 12.5466 7.54106 12.4854 7.4705C12.3124 7.27012 12.0234 6.9735 11.6882 6.844C11.3585 6.71625 10.9219 6.7285 10.6393 6.7495L10.5197 6.76C10.4232 6.52154 10.2439 6.32293 10.0124 6.19825C9.80399 6.08215 9.5786 5.99719 9.34387 5.94625C9.06305 5.892 8.67444 5.8955 8.39272 5.906L8.34923 5.90775Z" fill="white"/>
<path fill-rule="evenodd" clip-rule="evenodd" d="M1.60359 3.75002L2.17681 4.32324L1.82326 4.6768L0.646484 3.50002L1.82326 2.32324L2.17681 2.6768L1.60359 3.25002H4.50004V3.75002H1.60359Z" fill="white"/>
<path fill-rule="evenodd" clip-rule="evenodd" d="M11.8964 3.75002L11.3232 4.32324L11.6767 4.6768L12.8535 3.50002L11.6767 2.32324L11.3232 2.6768L11.8964 3.25002H8.99996V3.75002H11.8964Z" fill="white"/>
</svg>
