<svg width="40" height="41" viewBox="0 0 40 41" fill="none" xmlns="http://www.w3.org/2000/svg">
<rect y="0.5" width="40" height="40" rx="20" fill="#F1F5F9"/>
<path d="M15.121 13.981C15.3518 13.9192 15.5968 13.9485 15.8023 14.0624C16.0077 14.1763 16.1566 14.3655 16.2164 14.5884L18.0931 21.5925C18.1329 21.7411 18.2322 21.8673 18.3692 21.9432C18.5061 22.0191 18.6695 22.0386 18.8233 21.9974C18.9772 21.9562 19.1089 21.8576 19.1896 21.7234C19.2702 21.5892 19.2931 21.4303 19.2533 21.2816L18.4927 18.443L18.5913 18.4118C18.9554 18.2998 19.3279 18.2048 19.5461 18.1884C19.7097 18.177 19.916 18.2046 20.1205 18.2531C20.2224 18.2762 20.3387 18.3712 20.3888 18.5583L20.9936 20.8153C21.0334 20.964 21.1327 21.0901 21.2696 21.166C21.4066 21.242 21.57 21.2615 21.7238 21.2202C21.8777 21.179 22.0094 21.0804 22.09 20.9462C22.1707 20.812 22.1936 20.6531 22.1538 20.5045L21.6838 18.7506C21.7237 18.7355 21.7637 18.7208 21.8038 18.7065C22.1632 18.5813 22.4783 18.5137 22.6372 18.5312C22.7879 18.5461 23.0474 18.6699 23.3302 18.862C23.453 18.9444 23.5613 19.0283 23.64 19.0901L24.0442 20.5985C24.084 20.7471 24.1833 20.8733 24.3203 20.9492C24.4572 21.0251 24.6206 21.0446 24.7744 21.0034C24.9283 20.9622 25.06 20.8636 25.1406 20.7294C25.2213 20.5951 25.2442 20.4362 25.2044 20.2876L24.9041 19.167L25.3009 19.0606C25.463 19.0172 25.6322 19.0071 25.7974 19.0309C25.9626 19.0547 26.1203 19.112 26.2601 19.199C26.4 19.286 26.5191 19.4008 26.6096 19.536C26.7001 19.6713 26.76 19.8239 26.7856 19.9841L27.2864 23.1109C27.3506 23.5128 27.3267 23.9247 27.2162 24.32L26.331 27.4903C26.3033 27.5897 26.2491 27.6806 26.174 27.7539C26.0988 27.8272 26.0054 27.8802 25.9032 27.9077L18.4954 29.8926C18.3999 29.9181 18.2997 29.9205 18.2038 29.8994C18.1079 29.8784 18.0193 29.8346 17.9458 29.772L15.6377 27.808C15.4234 27.6259 15.2582 27.3959 15.1557 27.1372L13.8231 23.7648C13.7696 23.6297 13.7706 23.4791 13.8259 23.3429C13.8813 23.2066 13.987 23.0946 14.1221 23.0289L15.2257 22.493L15.4929 23.4904C15.5327 23.639 15.6321 23.7651 15.769 23.841C15.9059 23.917 16.0693 23.9365 16.2232 23.8953C16.377 23.854 16.5087 23.7555 16.5894 23.6212C16.67 23.487 16.6929 23.3281 16.6531 23.1795L14.4761 15.0547C14.4164 14.8318 14.4507 14.5934 14.5717 14.3921C14.6926 14.1907 14.8902 14.0429 15.121 13.981ZM18.1921 17.3212L17.3765 14.2775C17.2372 13.7574 16.8896 13.3159 16.4103 13.0501C15.931 12.7844 15.3592 12.7161 14.8207 12.8604C14.2823 13.0047 13.8212 13.3497 13.539 13.8195C13.2568 14.2893 13.1765 14.8454 13.3159 15.3656L14.9194 21.3499L13.5992 21.9919C13.1946 22.1889 12.8782 22.5246 12.7122 22.9328C12.5463 23.341 12.543 23.7921 12.7029 24.1971L14.0358 27.5706C14.2065 28.0018 14.482 28.3852 14.839 28.6887L17.1472 30.6526C17.3678 30.8403 17.6337 30.9714 17.9212 31.0343C18.2088 31.0972 18.5092 31.09 18.7957 31.0132L26.2035 29.0283C26.5102 28.946 26.7905 28.7869 27.0159 28.567C27.2413 28.3472 27.4038 28.0744 27.487 27.7763L28.3725 24.6071C28.5273 24.0532 28.5607 23.4758 28.4705 22.9125L27.9697 19.7857C27.9184 19.4655 27.7984 19.1604 27.6174 18.8901C27.4364 18.6198 27.1983 18.3903 26.9186 18.2164C26.6388 18.0425 26.3236 17.9281 25.9933 17.8805C25.6629 17.8329 25.3248 17.8531 25.0006 17.94L24.3265 18.1206C24.2287 18.0451 24.1284 17.9727 24.0258 17.9033C23.7355 17.706 23.2636 17.4253 22.7899 17.3745C22.3237 17.324 21.7687 17.4895 21.4139 17.6134L21.2644 17.6679C21.059 17.3956 20.7612 17.2028 20.4219 17.1225C20.1151 17.0454 19.7973 17.0139 19.4792 17.0292C19.1009 17.0561 18.6044 17.1939 18.2472 17.3041L18.1921 17.3212Z" fill="url(#paint0_linear_184_777)"/>
<path fill-rule="evenodd" clip-rule="evenodd" d="M10.5628 14.9722L12.3741 14.4869L12.5457 15.1272L10.7344 15.6126L10.5628 14.9722Z" fill="url(#paint1_linear_184_777)"/>
<path fill-rule="evenodd" clip-rule="evenodd" d="M19.4731 12.5845L17.6618 13.0698L17.8334 13.7102L19.6447 13.2248L19.4731 12.5845Z" fill="url(#paint2_linear_184_777)"/>
<path fill-rule="evenodd" clip-rule="evenodd" d="M12.4297 10.7558L13.6955 12.0216L13.2267 12.4903L11.9609 11.2246L12.4297 10.7558Z" fill="url(#paint3_linear_184_777)"/>
<path fill-rule="evenodd" clip-rule="evenodd" d="M16.3578 10.0466L15.8945 11.7756L15.2541 11.604L15.7174 9.875L16.3578 10.0466Z" fill="url(#paint4_linear_184_777)"/>
<defs>
<linearGradient id="paint0_linear_184_777" x1="10" y1="14.1521" x2="31.0753" y2="15.7019" gradientUnits="userSpaceOnUse">
<stop stop-color="#2E6EDB"/>
<stop offset="0.515625" stop-color="#3F7FEB"/>
<stop offset="1" stop-color="#2E6EDB"/>
</linearGradient>
<linearGradient id="paint1_linear_184_777" x1="10.3284" y1="15.3782" x2="12.174" y2="13.9423" gradientUnits="userSpaceOnUse">
<stop stop-color="#2E6EDB"/>
<stop offset="0.515625" stop-color="#3F7FEB"/>
<stop offset="1" stop-color="#2E6EDB"/>
</linearGradient>
<linearGradient id="paint2_linear_184_777" x1="19.8791" y1="12.8188" x2="17.5628" y2="12.4981" gradientUnits="userSpaceOnUse">
<stop stop-color="#2E6EDB"/>
<stop offset="0.515625" stop-color="#3F7FEB"/>
<stop offset="1" stop-color="#2E6EDB"/>
</linearGradient>
<linearGradient id="paint3_linear_184_777" x1="11.9609" y1="11.2246" x2="12.7027" y2="10.6769" gradientUnits="userSpaceOnUse">
<stop stop-color="#2E6EDB"/>
<stop offset="0.515625" stop-color="#3F7FEB"/>
<stop offset="1" stop-color="#2E6EDB"/>
</linearGradient>
<linearGradient id="paint4_linear_184_777" x1="15.7174" y1="9.875" x2="16.5626" y2="10.2435" gradientUnits="userSpaceOnUse">
<stop stop-color="#2E6EDB"/>
<stop offset="0.515625" stop-color="#3F7FEB"/>
<stop offset="1" stop-color="#2E6EDB"/>
</linearGradient>
</defs>
</svg>
