<svg width="20" height="18" viewBox="0 0 20 18" fill="none" xmlns="http://www.w3.org/2000/svg">
<path d="M1.22615 7.83905C1.22615 7.83905 10.0717 3.88768 13.1395 2.49635C14.3155 1.93981 18.3036 0.15891 18.3036 0.15891C18.3036 0.15891 20.1443 -0.620235 19.9909 1.27197C19.9398 2.05112 19.5307 4.77813 19.1217 7.72775C18.5081 11.9017 17.8435 16.4653 17.8435 16.4653C17.8435 16.4653 17.7412 17.7453 16.872 17.9679C16.0028 18.1906 14.5711 17.1888 14.3155 16.9662C14.111 16.7992 10.4807 14.2948 9.15133 13.0705C8.79341 12.7365 8.38437 12.0687 9.20246 11.2896C11.0431 9.453 13.2417 7.17122 14.5711 5.72423C15.1847 5.05639 15.7982 3.4981 13.2417 5.39031C9.6115 8.11732 6.03238 10.6774 6.03238 10.6774C6.03238 10.6774 5.2143 11.2339 3.6804 10.733C2.14649 10.2321 0.356936 9.56431 0.356936 9.56431C0.356936 9.56431 -0.870188 8.72951 1.22615 7.83905Z" fill="white"/>
</svg>
