<svg width="41" height="40" viewBox="0 0 41 40" fill="none" xmlns="http://www.w3.org/2000/svg">
<rect x="0.5" width="40" height="40" rx="20" fill="#32A9E6"/>
<path d="M9.5721 19.9645C9.5721 19.9645 18.909 16.0619 22.1473 14.6878C23.3886 14.1381 27.5983 12.3792 27.5983 12.3792C27.5983 12.3792 29.5413 11.6097 29.3794 13.4785C29.3254 14.248 28.8936 16.9414 28.4619 19.8546C27.8142 23.977 27.1126 28.4843 27.1126 28.4843C27.1126 28.4843 27.0046 29.7485 26.0871 29.9683C25.1696 30.1882 23.6585 29.1988 23.3886 28.979C23.1727 28.8141 19.3408 26.3406 17.9376 25.1313C17.5598 24.8015 17.128 24.1419 17.9915 23.3724C19.9345 21.5585 22.2552 19.3049 23.6585 17.8758C24.3061 17.2162 24.9538 15.6771 22.2552 17.546C18.4233 20.2393 14.6453 22.7678 14.6453 22.7678C14.6453 22.7678 13.7818 23.3174 12.1627 22.8227C10.5436 22.328 8.6546 21.6685 8.6546 21.6685C8.6546 21.6685 7.3593 20.844 9.5721 19.9645Z" fill="white"/>
</svg>
