<svg width="41" height="40" viewBox="0 0 41 40" fill="none" xmlns="http://www.w3.org/2000/svg">
<rect x="0.5" width="40" height="40" rx="20" fill="#01D363"/>
<path d="M31.7676 19.4325C31.7676 25.4952 26.8151 30.4099 20.7048 30.4099C18.7651 30.4099 16.9427 29.9141 15.3572 29.044L9.23242 30.9903L11.2293 25.1006C10.222 23.4465 9.64181 21.5065 9.64181 19.4325C9.64181 13.3698 14.5948 8.45508 20.7048 8.45508C26.8156 8.45508 31.7676 13.3698 31.7676 19.4325ZM20.7048 10.2033C15.5758 10.2033 11.4038 14.3435 11.4038 19.4325C11.4038 21.4519 12.0621 23.3221 13.1756 24.8434L12.0135 28.271L15.5879 27.135C17.0564 28.0993 18.8156 28.6617 20.7051 28.6617C25.8334 28.6617 30.0061 24.5219 30.0061 19.433C30.0061 14.344 25.8336 10.2033 20.7048 10.2033ZM26.2913 21.9607C26.223 21.8488 26.0424 21.7812 25.7715 21.6467C25.5001 21.5122 24.1665 20.861 23.9186 20.7716C23.67 20.6819 23.4887 20.6369 23.3082 20.906C23.1276 21.1755 22.6078 21.7812 22.4493 21.9607C22.2911 22.1407 22.1331 22.1632 21.8617 22.0285C21.5907 21.8941 20.7171 21.6096 19.6812 20.6932C18.8752 19.9801 18.3309 19.0997 18.1726 18.83C18.0146 18.5609 18.1561 18.4154 18.2916 18.2814C18.4138 18.1607 18.563 17.9672 18.6985 17.8102C18.8344 17.653 18.8795 17.541 18.9694 17.3612C19.0603 17.1817 19.015 17.0247 18.9468 16.8898C18.8792 16.7553 18.3364 15.4312 18.1105 14.8924C17.8847 14.354 17.6591 14.4437 17.5006 14.4437C17.3426 14.4437 17.1616 14.4212 16.9808 14.4212C16.8 14.4212 16.506 14.4885 16.2574 14.7577C16.009 15.0271 15.3087 15.6781 15.3087 17.0019C15.3087 18.326 16.2799 19.6053 16.4159 19.7845C16.5514 19.9638 18.2913 22.7692 21.0481 23.8466C23.8052 24.9236 23.8052 24.5643 24.3025 24.5192C24.7992 24.4744 25.9065 23.8684 26.1333 23.2404C26.3587 22.6114 26.3587 22.0729 26.2913 21.9607Z" fill="white"/>
</svg>
