<svg width="158" height="133" viewBox="0 0 158 133" fill="none" xmlns="http://www.w3.org/2000/svg">
<path d="M153.678 132.383C153.89 132.56 154.205 132.533 154.383 132.322L157.277 128.876C157.455 128.665 157.428 128.349 157.216 128.172C157.005 127.994 156.689 128.021 156.512 128.233L153.939 131.296L150.876 128.723C150.665 128.545 150.349 128.572 150.172 128.784C149.994 128.995 150.021 129.311 150.233 129.488L153.678 132.383ZM154.498 131.957C154.469 131.62 154.439 131.284 154.407 130.948L153.412 131.041C153.443 131.374 153.473 131.708 153.502 132.043L154.498 131.957ZM154.208 128.942C154.138 128.277 154.064 127.613 153.986 126.953L152.993 127.07C153.07 127.726 153.144 128.386 153.214 129.047L154.208 128.942ZM153.74 124.978C153.654 124.32 153.564 123.664 153.471 123.011L152.481 123.153C152.574 123.802 152.663 124.454 152.749 125.108L153.74 124.978ZM153.171 121.015C153.067 120.352 152.959 119.692 152.848 119.035L151.862 119.203C151.973 119.856 152.08 120.511 152.183 121.17L153.171 121.015ZM152.501 117.072C152.382 116.42 152.259 115.771 152.131 115.125L151.15 115.318C151.276 115.96 151.399 116.605 151.518 117.252L152.501 117.072ZM151.729 113.149C151.591 112.492 151.448 111.838 151.302 111.187L150.326 111.406C150.472 112.053 150.613 112.703 150.75 113.355L151.729 113.149ZM150.851 109.242C150.697 108.597 150.539 107.955 150.377 107.315L149.408 107.56C149.569 108.196 149.726 108.834 149.879 109.475L150.851 109.242ZM149.871 105.369C149.697 104.72 149.519 104.075 149.338 103.432L148.375 103.704C148.556 104.342 148.732 104.983 148.905 105.627L149.871 105.369ZM148.781 101.514C148.591 100.877 148.398 100.244 148.201 99.6136L147.247 99.9122C147.442 100.538 147.634 101.167 147.822 101.799L148.781 101.514ZM147.587 97.6999C147.378 97.0623 147.165 96.4279 146.947 95.7966L146.002 96.1221C146.218 96.7489 146.429 97.3788 146.637 98.012L147.587 97.6999ZM146.284 93.9123C146.059 93.2874 145.83 92.6656 145.597 92.047L144.661 92.3992C144.892 93.0134 145.119 93.6307 145.343 94.2512L146.284 93.9123ZM144.875 90.1704C144.63 89.5463 144.381 88.9255 144.128 88.308L143.203 88.6871C143.454 89.3001 143.701 89.9164 143.945 90.536L144.875 90.1704ZM143.358 86.4654C143.097 85.8544 142.833 85.2468 142.564 84.6425L141.65 85.0481C141.917 85.6481 142.179 86.2513 142.438 86.8578L143.358 86.4654ZM141.734 82.8084C141.454 82.2003 141.169 81.5956 140.881 80.9943L139.979 81.4266C140.265 82.0235 140.548 82.6238 140.826 83.2274L141.734 82.8084ZM140.005 79.2006C139.708 78.6043 139.408 78.0115 139.104 77.4221L138.215 77.8806C138.517 78.4657 138.815 79.0541 139.109 79.646L140.005 79.2006ZM138.169 75.6421C137.853 75.0522 137.534 74.4659 137.211 73.883L136.336 74.3676C136.657 74.9461 136.974 75.5282 137.287 76.1137L138.169 75.6421ZM136.232 72.145C135.899 71.5656 135.564 70.9898 135.224 70.4175L134.364 70.9276C134.701 71.4957 135.034 72.0673 135.364 72.6424L136.232 72.145ZM134.187 68.6983C133.838 68.1288 133.485 67.5629 133.129 67.0007L132.284 67.536C132.638 68.0941 132.988 68.6558 133.335 69.2211L134.187 68.6983ZM132.049 65.3246C131.682 64.7643 131.312 64.2077 130.938 63.6548L130.11 64.2149C130.481 64.7637 130.848 65.3162 131.212 65.8723L132.049 65.3246ZM129.803 62.0022C129.421 61.455 129.036 60.9115 128.647 60.3717L127.836 60.9559C128.221 61.4918 128.604 62.0313 128.983 62.5744L129.803 62.0022ZM127.47 58.7612C127.07 58.2229 126.667 57.6884 126.261 57.1577L125.467 57.7655C125.87 58.2924 126.27 58.823 126.667 59.3573L127.47 58.7612ZM125.032 55.5767C124.619 55.0535 124.203 54.534 123.784 54.0182L123.008 54.6491C123.424 55.161 123.837 55.6767 124.247 56.1961L125.032 55.5767ZM122.51 52.4748C122.08 51.9617 121.648 51.4524 121.212 50.9469L120.454 51.6001C120.887 52.1019 121.317 52.6075 121.744 53.1169L122.51 52.4748ZM119.894 49.442C119.452 48.9442 119.007 48.4502 118.558 47.96L117.82 48.6348C118.265 49.1214 118.707 49.6119 119.146 50.1061L119.894 49.442ZM117.194 46.4891C116.736 46.0024 116.275 45.5196 115.811 45.0407L115.093 45.7365C115.553 46.212 116.011 46.6913 116.466 47.1745L117.194 46.4891ZM114.41 43.6156C113.939 43.143 113.465 42.6742 112.988 42.2094L112.29 42.9254C112.764 43.3869 113.234 43.8523 113.702 44.3216L114.41 43.6156ZM111.543 40.8201C111.059 40.3609 110.571 39.9057 110.081 39.4544L109.404 40.1899C109.89 40.638 110.374 41.09 110.855 41.5459L111.543 40.8201ZM108.604 38.1123C108.105 37.666 107.604 37.2237 107.101 36.7853L106.444 37.5396C106.944 37.9748 107.442 38.4141 107.937 38.8572L108.604 38.1123ZM105.581 35.4811C105.072 35.0504 104.561 34.6236 104.047 34.2009L103.412 34.9731C103.922 35.393 104.43 35.8168 104.935 36.2445L105.581 35.4811ZM102.494 32.941C101.972 32.5234 101.447 32.1097 100.92 31.7001L100.306 32.4896C100.83 32.8964 101.351 33.3072 101.869 33.722L102.494 32.941ZM99.3325 30.4834C98.8011 30.0818 98.2674 29.6843 97.7316 29.2908L97.1397 30.0968C97.6718 30.4876 98.2019 30.8824 98.7297 31.2812L99.3325 30.4834ZM96.1076 28.1151C95.5639 27.7271 95.0181 27.3432 94.4702 26.9634L93.9005 27.7852C94.4446 28.1624 94.9867 28.5438 95.5267 28.9291L96.1076 28.1151ZM92.8206 25.836C92.267 25.4631 91.7113 25.0943 91.1538 24.7295L90.6063 25.5664C91.1601 25.9287 91.7121 26.295 92.262 26.6654L92.8206 25.836ZM89.4699 23.644C88.9067 23.2863 88.3417 22.9326 87.775 22.5831L87.2501 23.4343C87.8131 23.7815 88.3743 24.1327 88.9337 24.4881L89.4699 23.644ZM86.0685 21.5464C85.4944 21.2028 84.9186 20.8634 84.3412 20.5281L83.8391 21.3929C84.4127 21.726 84.9847 22.0632 85.555 22.4045L86.0685 21.5464ZM82.604 19.5348C82.0234 19.2079 81.4412 18.8851 80.8575 18.5665L80.3783 19.4442C80.9582 19.7608 81.5366 20.0814 82.1134 20.4062L82.604 19.5348ZM79.0936 17.6186C78.5028 17.3061 77.9106 16.9979 77.3171 16.6938L76.8612 17.5838C77.4508 17.8859 78.0391 18.1921 78.626 18.5026L79.0936 17.6186ZM75.5326 15.7943C74.9351 15.498 74.3363 15.2059 73.7363 14.918L73.3037 15.8196C73.8998 16.1056 74.4947 16.3958 75.0883 16.6902L75.5326 15.7943ZM71.9234 14.0628C71.3179 13.7819 70.7114 13.5054 70.1037 13.2331L69.6948 14.1456C70.2985 14.4162 70.9011 14.6909 71.5026 14.9699L71.9234 14.0628ZM68.2778 12.429C67.6634 12.1631 67.048 11.9016 66.4316 11.6445L66.0465 12.5673C66.6588 12.8228 67.2703 13.0827 67.8807 13.3468L68.2778 12.429ZM64.5795 10.8857C63.9613 10.637 63.3423 10.3928 62.7225 10.1528L62.3615 11.0854C62.9772 11.3238 63.5922 11.5665 64.2064 11.8134L64.5795 10.8857ZM60.8505 9.44194C60.2238 9.20863 59.5965 8.97971 58.9685 8.75518L58.6319 9.69679C59.2557 9.91986 59.879 10.1473 60.5016 10.3791L60.8505 9.44194ZM57.0831 8.0948C56.452 7.87831 55.8203 7.66626 55.1883 7.45862L54.8762 8.40867C55.5041 8.61495 56.1317 8.82563 56.7587 9.0407L57.0831 8.0948ZM53.2791 6.84525C52.6423 6.64526 52.0052 6.44975 51.3679 6.2587L51.0807 7.21658C51.7139 7.40638 52.3468 7.60062 52.9794 7.79929L53.2791 6.84525ZM49.4533 5.69841C48.8087 5.51437 48.1641 5.3349 47.5193 5.15998L47.2575 6.1251C47.898 6.29886 48.5384 6.47715 49.1787 6.65997L49.4533 5.69841ZM45.5849 4.64891C44.9401 4.48311 44.2953 4.32186 43.6506 4.16517L43.4144 5.13688C44.0548 5.29253 44.6953 5.45271 45.3359 5.6174L45.5849 4.64891ZM41.6974 3.70427C41.0455 3.55505 40.3938 3.41051 39.7424 3.2706L39.5325 4.24831C40.1795 4.38726 40.8267 4.53085 41.4743 4.67906L41.6974 3.70427ZM37.7893 2.86485C37.1329 2.73312 36.477 2.60613 35.8215 2.48386L35.6381 3.4669C36.2891 3.58833 36.9406 3.71446 37.5925 3.84531L37.7893 2.86485ZM33.8489 2.1299C33.1919 2.01666 32.5355 1.9082 31.8797 1.8045L31.7235 2.79224C32.3747 2.8952 33.0266 3.00291 33.679 3.11537L33.8489 2.1299ZM29.9002 1.50559C29.2369 1.41019 28.5744 1.31966 27.9128 1.23402L27.7844 2.22575C28.4413 2.31078 29.0992 2.40067 29.7578 2.49541L29.9002 1.50559ZM25.9309 0.991791C25.2669 0.915436 24.604 0.84404 23.9422 0.777573L23.8422 1.77257C24.4993 1.83855 25.1574 1.90944 25.8166 1.98525L25.9309 0.991791ZM21.9434 0.591614C21.2784 0.534638 20.6146 0.482712 19.9522 0.435791L19.8815 1.43329C20.5391 1.47986 21.198 1.53142 21.8581 1.58795L21.9434 0.591614ZM17.957 0.309448C17.2868 0.272049 16.618 0.239838 15.9508 0.212799L15.9103 1.21198C16.5724 1.2388 17.2361 1.27078 17.9013 1.30791L17.957 0.309448ZM13.9542 0.147217C13.2861 0.130448 12.6198 0.118897 11.9554 0.11261L11.9459 1.11256C12.6051 1.11881 13.2662 1.13025 13.9291 1.14691L13.9542 0.147217ZM9.94603 0.109573C9.27821 0.113922 8.6124 0.123612 7.94871 0.138672L7.97138 1.13841C8.62965 1.12347 9.29007 1.11386 9.95253 1.10956L9.94603 0.109573ZM5.94934 0.20044C5.27789 0.226746 4.60876 0.258591 3.94207 0.29599L3.99808 1.29442C4.65911 1.25734 5.32262 1.22575 5.98849 1.19968L5.94934 0.20044ZM1.94948 0.424805C1.61872 0.449051 1.28861 0.47467 0.959155 0.501678L1.04085 1.49832C1.36742 1.47156 1.69466 1.44617 2.02255 1.42213L1.94948 0.424805Z" fill="#77B5FF"/>
</svg>
