<svg width="67" height="28" viewBox="0 0 67 28" fill="none" xmlns="http://www.w3.org/2000/svg">
<path d="M26.8211 22.1612C28.3404 22.1612 29.5299 21.8286 30.3896 21.1635C31.2567 20.4984 31.6903 19.5811 31.6903 18.4117C31.6903 17.7977 31.5606 17.2788 31.3012 16.8548C31.0492 16.4309 30.6268 16.0655 30.0339 15.7585C29.441 15.4442 28.6406 15.1591 27.6326 14.9033C26.6914 14.6694 25.9799 14.4684 25.4982 14.3003C25.0239 14.1249 24.7015 13.9495 24.5311 13.7741C24.3606 13.5914 24.2754 13.3684 24.2754 13.1053C24.2754 12.6522 24.494 12.2977 24.9313 12.0419C25.3685 11.7787 25.9392 11.6618 26.6432 11.691C27.377 11.7203 27.9736 11.903 28.433 12.2392C28.8925 12.5681 29.2505 12.9773 29.332 13.5401C29.332 13.5401 29.9559 13.6983 30.6193 13.5767C31.3423 13.4442 31.6236 13.1492 31.6236 13.1492C31.4902 12.0967 30.9677 11.2561 30.0561 10.6276C29.1445 9.99167 27.9995 9.67373 26.621 9.67373C25.2129 9.67373 24.0827 9.99898 23.2304 10.6495C22.3781 11.2927 21.952 12.1515 21.952 13.2259C21.952 13.8033 22.0779 14.2967 22.3299 14.706C22.5893 15.108 23.0192 15.4588 23.6195 15.7585C24.2272 16.0581 25.0461 16.3432 26.0763 16.6136C27.0175 16.8621 27.7179 17.0704 28.1774 17.2386C28.6369 17.4067 28.937 17.5857 29.0778 17.7758C29.226 17.9585 29.3002 18.1997 29.3002 18.4994C29.3002 19.011 29.0926 19.413 28.6776 19.7053C28.27 19.9977 27.703 20.1439 26.9767 20.1439C26.1763 20.1439 25.5056 19.9685 24.9646 19.6176C24.431 19.2668 23.9903 18.7597 23.8421 18.1384C23.8421 18.1384 23.3909 17.9159 22.6389 17.9901C21.9489 18.0581 21.5629 18.5213 21.5629 18.5213C21.7704 19.6761 22.3336 20.5715 23.2526 21.2073C24.1716 21.8432 25.3611 22.1612 26.8211 22.1612Z" fill="white"/>
<path d="M41.0202 21.8432C41.0202 21.8432 41.2143 21.476 41.2143 20.8826C41.2143 20.2151 41.0202 19.9027 41.0202 19.9027C40.2346 20.0196 39.5491 20.0452 38.9636 19.9794C38.3855 19.9063 37.9631 19.6469 37.6963 19.201C37.5555 18.9598 37.4777 18.6638 37.4628 18.313C37.4554 17.9621 37.4517 17.5492 37.4517 17.0741V11.8445H41.0202C41.0202 11.8445 41.1391 11.6652 41.1391 10.9442C41.1391 10.2232 41.0202 10.0026 41.0202 10.0026H37.4517V6.71358C37.4517 6.71358 37.2285 6.56836 36.2845 6.56836C35.4236 6.56836 35.1172 6.71358 35.1172 6.71358V10.0026H32.816C32.816 10.0026 32.7162 10.2026 32.7162 10.9236C32.7162 11.6859 32.816 11.8445 32.816 11.8445H35.1172V17.1837C35.1172 17.8269 35.1246 18.4043 35.1394 18.916C35.1617 19.4203 35.3025 19.9173 35.5619 20.407C35.8583 20.9552 36.2919 21.3572 36.8625 21.613C37.4332 21.8688 38.0817 22.0077 38.808 22.0296C39.5343 22.0515 40.2717 21.9894 41.0202 21.8432Z" fill="white"/>
<path d="M48.312 22.1721C49.4755 22.1721 50.5316 21.8834 51.4802 21.306C52.4289 20.7213 53.1367 19.899 53.6036 18.8392C53.6036 18.8392 53.2469 18.5093 52.4949 18.2868C51.5152 17.9969 51.3246 18.1266 51.3246 18.1266C50.7169 19.3837 49.6756 20.0123 48.2008 20.0123C47.1929 20.0123 46.3999 19.7127 45.8218 19.1133C45.2437 18.514 44.9065 17.6661 44.8102 16.5698H53.7592C53.8407 15.1518 53.6703 13.9276 53.2478 12.897C52.8254 11.8664 52.1843 11.0734 51.3246 10.5179C50.4649 9.95513 49.4236 9.67373 48.2008 9.67373C47.0298 9.67373 46.0034 9.9332 45.1214 10.4521C44.2395 10.9711 43.5503 11.7056 43.0537 12.6558C42.5646 13.606 42.32 14.7279 42.32 16.0216C42.32 17.2422 42.5683 18.3166 43.0648 19.2449C43.5688 20.1658 44.2691 20.8857 45.1659 21.4047C46.0701 21.9163 47.1188 22.1721 48.312 22.1721ZM48.2897 11.702C50.1055 11.702 51.1356 12.7289 51.3802 14.7827H44.8658C45.014 13.7814 45.3734 13.0176 45.9441 12.4914C46.5147 11.9651 47.2966 11.702 48.2897 11.702Z" fill="white"/>
<path d="M55.9165 27.1057C55.9165 27.1057 56.0528 27.3616 57.073 27.3616C58.0933 27.3616 58.2511 27.1057 58.2511 27.1057V21.01C58.6735 21.3828 59.1589 21.6678 59.7074 21.8652C60.2632 22.0698 60.882 22.1721 61.5639 22.1721C62.683 22.1721 63.6464 21.898 64.4542 21.3499C65.2695 20.7944 65.8957 20.0452 66.333 19.1024C66.7777 18.1595 67 17.096 67 15.912C67 14.7206 66.7777 13.6571 66.333 12.7216C65.8883 11.7787 65.2546 11.0369 64.432 10.496C63.6168 9.94782 62.6459 9.67373 61.5194 9.67373C60.7783 9.67373 60.1113 9.79798 59.5184 10.0465C58.9255 10.2877 58.4141 10.6276 57.9843 11.0661V10.0026C57.9843 10.0026 57.4785 9.70982 56.9226 9.70982C56.3668 9.70982 55.9165 10.0026 55.9165 10.0026V27.1057ZM61.2415 20.1C60.1002 20.1 59.2701 19.709 58.7513 18.9269C58.2399 18.1449 57.9843 17.1399 57.9843 15.912C57.9843 14.6841 58.2399 13.6827 58.7513 12.908C59.2627 12.1332 60.0668 11.7458 61.1637 11.7458C61.9344 11.7458 62.5681 11.9322 63.0646 12.305C63.5612 12.6777 63.9281 13.1784 64.1652 13.807C64.4098 14.4356 64.5321 15.1372 64.5321 15.912C64.5321 16.694 64.4135 17.403 64.1763 18.0389C63.9392 18.6675 63.576 19.1681 63.0869 19.5409C62.6051 19.9137 61.99 20.1 61.2415 20.1Z" fill="white"/>
<path d="M0 21.8376C0 21.8376 0.522969 22.202 1.6436 22.202C2.76422 22.202 3.24235 21.8376 3.24235 21.8376C3.24235 21.8376 3.45372 19.1919 4.81123 17.7683C7.16026 15.3049 11.2815 15.3152 13.6418 17.7683C15.0083 19.1886 15.2405 21.8376 15.2405 21.8376C15.2405 21.8376 15.8382 22.202 16.9588 22.202C18.0191 22.202 18.4829 21.8376 18.4829 21.8376L11.4902 0.844669C11.4902 0.844669 10.6086 0.638672 9.20409 0.638672C7.79956 0.638672 6.99272 0.844669 6.99272 0.844669L0 21.8376ZM5.7675 14.2422L9.20409 3.89156L12.6855 14.2422C12.6855 14.2422 11.2437 13.455 9.11445 13.455C6.76114 13.455 5.7675 14.2422 5.7675 14.2422Z" fill="#4282FF"/>
</svg>
