<svg width="139" height="68" viewBox="0 0 139 68" fill="none" xmlns="http://www.w3.org/2000/svg">
<g clip-path="url(#clip0_15_116)">
<path d="M70.247 61.4815C70.3469 61.4467 70.441 61.3967 70.5258 61.3334C70.728 61.1793 70.829 60.9521 70.829 60.6519C70.829 60.3516 70.724 60.121 70.514 59.96C70.3029 59.803 70.014 59.7245 69.6472 59.7245H68.2028V63.3541H69.7418C70.1619 63.3541 70.477 63.2687 70.687 63.0978C70.8971 62.927 71.0023 62.686 71.0028 62.3749C71.0028 62.0677 70.9018 61.8344 70.6996 61.6749C70.5652 61.5771 70.4105 61.511 70.247 61.4815ZM68.5652 60.0297H69.6272C69.8957 60.0297 70.1013 60.086 70.2455 60.1986C70.3897 60.3112 70.4615 60.4771 70.4615 60.6986C70.468 60.7931 70.4518 60.8879 70.4142 60.9749C70.3767 61.0619 70.3188 61.1386 70.2455 61.1986C70.0976 61.3112 69.8957 61.3667 69.6272 61.3667H68.5652V60.0297ZM70.4141 62.8749C70.2618 62.9889 70.0384 63.046 69.7441 63.046H68.5652V61.6623H69.7418C70.0377 61.6623 70.261 61.7176 70.4119 61.8282C70.5643 61.9386 70.6404 62.1119 70.6404 62.3467C70.6404 62.5815 70.5643 62.7608 70.4119 62.8749H70.4141Z" fill="#77B5FF"/>
<path d="M73.3015 62.5889L72.1936 60.6311H71.8363V63.3518H72.1588V61.1904L73.2164 63.02H73.3754L74.4323 61.1933V63.3518H74.7555V60.6311H74.4278L73.3015 62.5889Z" fill="#77B5FF"/>
<path d="M77.4335 60.7785C77.2362 60.661 77.01 60.601 76.7805 60.6052C76.5506 60.6019 76.3244 60.6638 76.1281 60.7837C75.9347 60.9029 75.7768 61.072 75.6711 61.2733C75.5569 61.4942 75.4997 61.7402 75.5047 61.9889C75.4998 62.2392 75.5597 62.4864 75.6785 62.7067C75.7907 62.9119 75.9573 63.082 76.16 63.1985C76.3781 63.3212 76.625 63.3831 76.8751 63.3778C77.072 63.3799 77.2672 63.341 77.4483 63.2637C77.6181 63.1907 77.7673 63.0767 77.8824 62.9319L77.6842 62.6933C77.5899 62.8111 77.4679 62.9037 77.3292 62.963C77.1889 63.0226 77.0379 63.0526 76.8855 63.0511C76.6976 63.0548 76.512 63.0093 76.3471 62.9193C76.1913 62.8334 76.063 62.7049 75.9773 62.5489C75.9028 62.4107 75.8598 62.2576 75.8515 62.1007H78.04C78.04 62.08 78.04 62.06 78.04 62.0407C78.041 62.0227 78.041 62.0047 78.04 61.9867C78.0451 61.7359 77.9888 61.4876 77.8758 61.2637C77.7753 61.0646 77.6224 60.8968 77.4335 60.7785ZM75.9669 61.4133C76.041 61.2634 76.1562 61.1378 76.299 61.0511C76.4443 60.9638 76.611 60.9189 76.7805 60.9215C76.95 60.918 77.117 60.9629 77.2619 61.0511C77.4027 61.1389 77.517 61.2633 77.5925 61.4111C77.6586 61.5409 77.6978 61.6828 77.7079 61.8281H75.8538C75.8637 61.6837 75.9021 61.5427 75.9669 61.4133Z" fill="#77B5FF"/>
<path d="M79.4104 61.0585C79.5621 60.9695 79.7353 60.9239 79.9111 60.9267C80.0608 60.9251 80.2088 60.9589 80.343 61.0252C80.4799 61.0946 80.5951 61.2004 80.6758 61.3311L80.9391 61.1444C80.843 60.9707 80.6969 60.8301 80.5198 60.7407C80.333 60.6491 80.1272 60.6029 79.9192 60.6059C79.6769 60.6017 79.4379 60.6626 79.227 60.7822C79.0256 60.8975 78.8598 61.0661 78.7478 61.2696C78.6335 61.492 78.5739 61.7384 78.5739 61.9885C78.5739 62.2386 78.6335 62.485 78.7478 62.7074C78.8596 62.9122 79.0254 63.0823 79.227 63.1993C79.4374 63.3205 79.6766 63.3824 79.9192 63.3785C80.1275 63.3815 80.3334 63.3346 80.5198 63.2415C80.6967 63.1515 80.8435 63.0117 80.9421 62.8393L80.6788 62.6526C80.5968 62.7809 80.4818 62.8848 80.346 62.9533C80.2117 63.0196 80.0638 63.0534 79.9141 63.0518C79.7383 63.0546 79.5651 63.009 79.4134 62.92C79.2638 62.8316 79.1417 62.7034 79.0606 62.5496C78.9754 62.3753 78.9311 62.1837 78.9311 61.9896C78.9311 61.7955 78.9754 61.604 79.0606 61.4296C79.1408 61.276 79.2619 61.1475 79.4104 61.0585Z" fill="#77B5FF"/>
<path d="M81.0797 60.9526H82.067V63.3518H82.4198V60.9526H83.4071V60.6311H81.0797V60.9526Z" fill="#77B5FF"/>
<path d="M85.475 60.7785C85.2776 60.6611 85.0515 60.6011 84.822 60.6052C84.5918 60.602 84.3655 60.6638 84.1689 60.7837C83.9758 60.9031 83.8182 61.0722 83.7126 61.2733C83.5984 61.4942 83.5412 61.7402 83.5462 61.9889C83.5417 62.2391 83.6015 62.4863 83.72 62.7067C83.8322 62.9118 83.9988 63.082 84.2014 63.1985C84.4196 63.3211 84.6665 63.383 84.9166 63.3778C85.1135 63.3798 85.3087 63.341 85.4898 63.2637C85.6596 63.1907 85.8088 63.0767 85.9239 62.9318L85.7257 62.6933C85.6312 62.8109 85.5093 62.9035 85.3707 62.963C85.2304 63.0226 85.0794 63.0526 84.927 63.0511C84.7391 63.0548 84.5535 63.0093 84.3886 62.9192C84.2329 62.8331 84.1048 62.7047 84.0188 62.5489C83.9443 62.4107 83.9013 62.2576 83.893 62.1007H86.0815C86.0815 62.08 86.0815 62.06 86.0815 62.0407C86.0825 62.0227 86.0825 62.0047 86.0815 61.9867C86.0866 61.7358 86.0303 61.4876 85.9173 61.2637C85.817 61.0644 85.664 60.8966 85.475 60.7785ZM84.0084 61.4133C84.0825 61.2634 84.1977 61.1378 84.3405 61.0511C84.4858 60.9638 84.6525 60.9189 84.822 60.9215C84.9915 60.918 85.1585 60.9629 85.3034 61.0511C85.4442 61.1389 85.5585 61.2633 85.634 61.4111C85.7001 61.5409 85.7393 61.6828 85.7494 61.8281H83.8953C83.9052 61.6837 83.9436 61.5427 84.0084 61.4133Z" fill="#77B5FF"/>
<path d="M90.4213 60.6311H90.0397L89.1219 61.823H88.5206V60.6311H88.1678V63.3518H88.5206V62.1393H89.1137L90.0789 63.3518H90.496L89.3955 61.9459L90.4213 60.6311Z" fill="#77B5FF"/>
<path d="M94.3478 61.8333H92.7052V60.6311H92.3524V63.3518H92.7052V62.1496H94.3478V63.3518H94.7006V60.6311H94.3478V61.8333Z" fill="#77B5FF"/>
<path d="M97.4629 60.7837C97.2538 60.6671 97.0185 60.6058 96.7792 60.6058C96.5398 60.6058 96.3045 60.6671 96.0954 60.7837C95.8972 60.9004 95.7343 61.0688 95.6243 61.2711C95.5101 61.4929 95.4505 61.7389 95.4505 61.9885C95.4505 62.2381 95.5101 62.4841 95.6243 62.7059C95.7334 62.9107 95.8963 63.0818 96.0954 63.2007C96.3014 63.3221 96.5369 63.3841 96.7758 63.38C97.0161 63.3836 97.2529 63.3217 97.4607 63.2007C97.6608 63.0835 97.8248 62.9133 97.9348 62.7089C98.0516 62.488 98.1104 62.241 98.1056 61.9911C98.1113 61.7411 98.0524 61.4939 97.9348 61.2733C97.8242 61.0707 97.6612 60.9016 97.4629 60.7837ZM97.6219 62.5459C97.5432 62.6989 97.4236 62.8271 97.2765 62.9163C97.1251 63.0059 96.9517 63.0516 96.7758 63.0481C96.6021 63.0515 96.4308 63.0058 96.2818 62.9163C96.1354 62.8263 96.016 62.6983 95.9364 62.5459C95.8517 62.3719 95.8077 62.1809 95.8077 61.9874C95.8077 61.7938 95.8517 61.6028 95.9364 61.4289C96.0167 61.2762 96.1368 61.1482 96.284 61.0585C96.395 60.9904 96.5188 60.9458 96.6477 60.9276C96.7766 60.9094 96.9078 60.9179 97.0333 60.9527C97.1587 60.9874 97.2757 61.0476 97.377 61.1295C97.4783 61.2114 97.5616 61.3133 97.6219 61.4289C97.7052 61.6033 97.7484 61.7941 97.7484 61.9874C97.7484 62.1807 97.7052 62.3715 97.6219 62.5459Z" fill="#77B5FF"/>
<path d="M100.512 61.9437C100.587 61.9177 100.658 61.8813 100.722 61.8356C100.799 61.7733 100.861 61.6944 100.903 61.6049C100.945 61.5153 100.966 61.4174 100.965 61.3184C100.964 61.2195 100.94 61.1221 100.896 61.0336C100.852 60.9451 100.788 60.8677 100.71 60.8074C100.539 60.6894 100.307 60.6306 100.012 60.6311H98.8615V63.3518H100.045C100.39 63.3518 100.644 63.2872 100.807 63.1578C100.888 63.0925 100.953 63.0089 100.995 62.9137C101.038 62.8185 101.057 62.7146 101.052 62.6104C101.058 62.512 101.041 62.4136 101.002 62.3229C100.964 62.2322 100.905 62.1516 100.83 62.0874C100.737 62.0156 100.628 61.9664 100.512 61.9437ZM99.2031 60.9163H99.9871C100.15 60.906 100.312 60.9458 100.452 61.0304C100.505 61.069 100.548 61.1205 100.576 61.1803C100.604 61.24 100.617 61.3059 100.613 61.3718C100.617 61.4386 100.604 61.5053 100.576 61.5659C100.548 61.6265 100.505 61.6792 100.452 61.7193C100.313 61.8075 100.151 61.8492 99.9871 61.8385H99.2031V60.9163ZM100.534 62.9504C100.42 63.0244 100.252 63.0615 100.031 63.0615H99.2017V62.1133H100.066C100.286 62.1133 100.448 62.1514 100.551 62.2274C100.606 62.2704 100.649 62.3262 100.677 62.3899C100.705 62.4537 100.716 62.5233 100.71 62.5926C100.715 62.6623 100.701 62.732 100.671 62.7948C100.64 62.8576 100.594 62.9112 100.536 62.9504H100.534Z" fill="#77B5FF"/>
<path d="M102.976 61.5896L102.231 61.5793V60.6311H101.878V63.3518L102.914 63.357C103.259 63.36 103.524 63.2839 103.708 63.1289C103.892 62.9738 103.985 62.7516 103.986 62.4622C103.986 62.1822 103.9 61.9679 103.728 61.8192C103.556 61.6706 103.305 61.5941 102.976 61.5896ZM103.439 62.923C103.315 63.0281 103.131 63.079 102.886 63.0755L102.231 63.0652V61.8518L102.886 61.8622C103.134 61.8659 103.32 61.9148 103.442 62.0104C103.564 62.1059 103.626 62.2555 103.626 62.4593C103.632 62.5459 103.618 62.6327 103.586 62.7133C103.554 62.7939 103.504 62.8661 103.439 62.9244V62.923Z" fill="#77B5FF"/>
<path d="M104.772 60.6311H104.42V63.3518H104.772V60.6311Z" fill="#77B5FF"/>
<path d="M107.24 62.5889L106.132 60.6311H105.775V63.3518H106.098V61.1904L107.155 63.02H107.314L108.371 61.1933V63.3518H108.693V60.6311H108.366L107.24 62.5889Z" fill="#77B5FF"/>
<path d="M112.649 61.9437C112.724 61.9177 112.794 61.8813 112.859 61.8356C112.936 61.7735 112.998 61.6947 113.04 61.6051C113.082 61.5155 113.104 61.4175 113.102 61.3184C113.101 61.2194 113.077 61.1219 113.033 61.0334C112.989 60.9448 112.925 60.8676 112.846 60.8074C112.676 60.6894 112.443 60.6306 112.149 60.6311H110.997V63.3518H112.181C112.526 63.3518 112.78 63.2872 112.942 63.1578C113.024 63.0925 113.088 63.0089 113.131 62.9137C113.174 62.8185 113.193 62.7146 113.188 62.6104C113.194 62.512 113.177 62.4136 113.138 62.3229C113.1 62.2322 113.041 62.1516 112.966 62.0874C112.873 62.0157 112.764 61.9665 112.649 61.9437ZM111.34 60.9163H112.124C112.286 60.906 112.449 60.9458 112.588 61.0304C112.642 61.069 112.685 61.1205 112.713 61.1803C112.741 61.24 112.754 61.3059 112.749 61.3718C112.753 61.4386 112.741 61.5053 112.712 61.5659C112.684 61.6265 112.642 61.6792 112.588 61.7193C112.45 61.8075 112.287 61.8492 112.124 61.8385H111.34V60.9163ZM112.671 62.9504C112.556 63.0244 112.388 63.0615 112.167 63.0615H111.338V62.1133H112.202C112.424 62.1133 112.586 62.1511 112.688 62.2274C112.741 62.2706 112.783 62.3263 112.81 62.3894C112.837 62.4525 112.848 62.5213 112.842 62.5896C112.848 62.6593 112.835 62.7294 112.805 62.7927C112.776 62.856 112.73 62.9104 112.672 62.9504H112.671Z" fill="#77B5FF"/>
<path d="M115.691 60.7785C115.493 60.6611 115.267 60.6011 115.038 60.6052C114.807 60.6018 114.581 60.6637 114.385 60.7837C114.191 60.9031 114.034 61.0722 113.928 61.2733C113.814 61.4942 113.757 61.7402 113.762 61.9889C113.757 62.2391 113.817 62.4864 113.936 62.7067C114.048 62.9118 114.215 63.082 114.417 63.1985C114.635 63.3212 114.882 63.3832 115.132 63.3778C115.329 63.3798 115.524 63.341 115.705 63.2637C115.875 63.1904 116.024 63.0765 116.14 62.9318L115.941 62.6933C115.846 62.8109 115.725 62.9035 115.586 62.963C115.446 63.0226 115.295 63.0526 115.143 63.0511C114.955 63.0548 114.769 63.0093 114.604 62.9192C114.448 62.8333 114.32 62.7049 114.234 62.5489C114.16 62.4106 114.117 62.2576 114.108 62.1007H116.297C116.297 62.08 116.297 62.06 116.297 62.0407C116.297 62.0222 116.297 62.0037 116.297 61.9867C116.302 61.7358 116.246 61.4876 116.133 61.2637C116.033 61.0644 115.88 60.8966 115.691 60.7785ZM114.223 61.4133C114.298 61.2636 114.413 61.1381 114.556 61.0511C114.701 60.9637 114.868 60.9188 115.038 60.9215C115.207 60.918 115.374 60.9629 115.519 61.0511C115.66 61.1387 115.774 61.2632 115.849 61.4111C115.916 61.5407 115.955 61.6827 115.965 61.8281H114.11C114.121 61.6838 114.159 61.543 114.223 61.4133Z" fill="#77B5FF"/>
<path d="M119.096 60.7785C118.894 60.6617 118.664 60.6018 118.43 60.6052C118.214 60.6019 118.002 60.6574 117.815 60.7659C117.652 60.864 117.517 61.0025 117.423 61.1681V60.6311H117.085V64.357H117.438V62.8289C117.532 62.9866 117.663 63.1188 117.82 63.2141C118.004 63.3241 118.216 63.3808 118.43 63.3778C118.664 63.3812 118.894 63.3202 119.096 63.2015C119.292 63.0845 119.453 62.9159 119.56 62.7141C119.671 62.4889 119.729 62.2411 119.729 61.99C119.729 61.7389 119.671 61.4911 119.56 61.2659C119.453 61.0636 119.293 60.8949 119.096 60.7785ZM119.247 62.5459C119.184 62.6596 119.1 62.7595 118.998 62.8399C118.896 62.9202 118.779 62.9794 118.654 63.0139C118.528 63.0484 118.398 63.0575 118.269 63.0408C118.14 63.024 118.016 62.9817 117.904 62.9163C117.756 62.8275 117.636 62.6993 117.557 62.5459C117.47 62.3734 117.426 62.1821 117.43 61.9889C117.426 61.7963 117.469 61.6057 117.557 61.4341C117.637 61.2814 117.757 61.1534 117.904 61.0637C118.055 60.973 118.228 60.9263 118.403 60.9289C118.578 60.9262 118.75 60.9729 118.9 61.0637C119.046 61.154 119.166 61.2819 119.247 61.4341C119.336 61.6053 119.38 61.7961 119.376 61.9889C119.38 62.1824 119.336 62.3738 119.247 62.5459Z" fill="#77B5FF"/>
<path d="M123.74 63.0304H122.474V60.6311H122.121V63.0304H120.84V60.6311H120.488V63.3518H124.092V60.6311H123.74V63.0304Z" fill="#77B5FF"/>
<path d="M125.447 62.7926V60.6311H125.094V63.3518H125.412L127.15 61.1859V63.3518H127.503V60.6311H127.19L125.447 62.7926Z" fill="#77B5FF"/>
<path d="M130.505 61.8333H128.862V60.6311H128.51V63.3518H128.862V62.1496H130.505V63.3518H130.858V60.6311H130.505V61.8333Z" fill="#77B5FF"/>
<path d="M132.76 60.6052C132.56 60.6042 132.362 60.6365 132.173 60.7007C131.998 60.7593 131.836 60.8519 131.697 60.9733L131.856 61.2474C131.969 61.1462 132.101 61.0673 132.243 61.0148C132.397 60.9559 132.56 60.926 132.725 60.9267C132.969 60.9267 133.154 60.9889 133.278 61.1133C133.402 61.2378 133.464 61.4156 133.464 61.6467V61.8126H132.635C132.433 61.8045 132.231 61.8407 132.044 61.9185C131.911 61.9764 131.8 62.0743 131.726 62.1985C131.661 62.3169 131.628 62.4501 131.629 62.5852C131.627 62.7307 131.667 62.8738 131.744 62.997C131.825 63.1205 131.939 63.2178 132.074 63.277C132.234 63.3473 132.408 63.3817 132.583 63.3778C132.8 63.3857 133.015 63.3298 133.201 63.217C133.317 63.142 133.413 63.0404 133.481 62.9207V63.3489H133.819V61.6622C133.819 61.3067 133.727 61.0415 133.543 60.8667C133.36 60.6919 133.099 60.6047 132.76 60.6052ZM133.149 62.9452C132.995 63.0427 132.817 63.0922 132.635 63.0874C132.462 63.0981 132.29 63.0487 132.149 62.9474C132.093 62.9036 132.048 62.8473 132.018 62.7829C131.988 62.7186 131.973 62.6481 131.975 62.577C131.974 62.5121 131.986 62.4476 132.012 62.3878C132.037 62.3281 132.075 62.2744 132.123 62.2304C132.221 62.137 132.396 62.0904 132.646 62.0904H133.466V62.5348C133.408 62.7026 133.296 62.8467 133.149 62.9452Z" fill="#77B5FF"/>
<path d="M137.346 60.6311L136.22 62.5889L135.112 60.6311H134.755V63.3518H135.077V61.1904L136.135 63.02H136.293L137.351 61.1933V63.3518H137.673V60.6311H137.346Z" fill="#77B5FF"/>
<path d="M104.067 43.2511H102.159C101.996 43.2511 101.917 43.3252 101.917 43.4785L101.953 48.2489V50.1192C101.782 50.8859 101.523 51.5267 101.173 52.0511C100.854 52.5413 100.423 52.9477 99.9154 53.2363C99.4256 53.5046 98.8754 53.6428 98.3171 53.6378C97.4962 53.6378 96.8276 53.3859 96.3114 52.8822C95.7951 52.3785 95.5375 51.5788 95.5385 50.483V48.2489L95.5888 43.4785C95.5907 43.4373 95.5815 43.3964 95.5622 43.36C95.1 43.8266 94.5995 44.2536 94.066 44.6363C93.8027 44.8267 93.5254 45.0067 93.2295 45.1829L93.2695 48.2489V50.5637C93.2695 52.0985 93.6639 53.259 94.4528 54.0452C95.2417 54.8313 96.3168 55.222 97.6781 55.217C98.3221 55.2263 98.9624 55.1171 99.567 54.8948C100.101 54.6931 100.597 54.4026 101.034 54.0355C101.428 53.7058 101.776 53.3247 102.069 52.9022L102.006 54.7178C102.006 54.8711 102.09 54.9452 102.262 54.9452H104.037C104.209 54.9452 104.293 54.8711 104.293 54.7178L104.23 48.5659L104.32 43.4785C104.323 43.3281 104.238 43.2511 104.067 43.2511Z" fill="#77B5FF"/>
<path d="M118.565 39.0519H116.67C116.498 39.0519 116.413 39.126 116.413 39.2793L116.464 45.103C115.586 43.7104 114.207 43.0141 112.329 43.0141C111.167 43.0141 110.177 43.2901 109.358 43.8422C108.54 44.3926 107.891 45.159 107.482 46.0563C107.051 46.9803 106.835 48.002 106.835 49.1215C106.835 50.2573 107.042 51.2827 107.456 52.1978C107.846 53.0844 108.484 53.839 109.293 54.3704C110.105 54.9037 111.104 55.1706 112.29 55.1711C113.254 55.1711 114.091 54.9736 114.8 54.5785C115.498 54.1945 116.084 53.6352 116.501 52.9556L116.438 54.7148C116.429 54.863 116.512 54.9422 116.694 54.9422H118.563C118.725 54.9422 118.806 54.8664 118.807 54.7148L118.733 46.0534L118.807 39.2763C118.808 39.1267 118.727 39.0519 118.565 39.0519ZM115.555 52.6074C114.89 53.3645 113.998 53.7427 112.88 53.7422C112.06 53.7502 111.374 53.5526 110.823 53.1497C110.273 52.7467 109.865 52.1867 109.601 51.4697C109.336 50.7541 109.204 49.9272 109.204 48.9889C109.204 48.0966 109.338 47.3064 109.608 46.6185C109.845 45.966 110.276 45.4016 110.843 45.0008C111.397 44.6146 112.093 44.4252 112.93 44.4326C114.099 44.4326 115.002 44.8509 115.638 45.6874C116.275 46.524 116.584 47.699 116.566 49.2126C116.559 50.7188 116.222 51.8501 115.555 52.6067V52.6074Z" fill="#77B5FF"/>
<path d="M124.007 39.0519H122.138C121.984 39.0519 121.907 39.1277 121.907 39.2793L121.997 46.8963L121.907 54.7178C121.907 54.8694 121.984 54.9452 122.138 54.9452H124.007C124.178 54.9452 124.263 54.8694 124.263 54.7178L124.161 46.8734L124.263 39.2793C124.265 39.1277 124.179 39.0519 124.007 39.0519Z" fill="#77B5FF"/>
<path d="M137.944 43.2526H136.074C136.012 43.2468 135.95 43.2613 135.896 43.294C135.843 43.3267 135.802 43.3759 135.779 43.4341L132.603 52.2771L128.889 43.4341C128.864 43.3773 128.822 43.3295 128.769 43.2971C128.716 43.2646 128.655 43.2491 128.593 43.2526H126.48C126.266 43.2526 126.197 43.3395 126.275 43.5134L131.452 54.9793L130.03 58.5437C129.971 58.7176 130.039 58.8047 130.235 58.8052H131.936C132.089 58.8052 132.184 58.7408 132.218 58.6119L138.147 43.5134C138.218 43.3393 138.149 43.2526 137.944 43.2526Z" fill="#77B5FF"/>
<path d="M92.6896 44.2556C92.8213 44.1711 92.9507 44.0837 93.0801 43.9911C93.4 43.7608 93.7074 43.5136 94.0009 43.2504C94.298 42.9829 94.58 42.699 94.8455 42.4C95.3592 41.8066 95.7945 41.1493 96.1405 40.4445C96.4918 39.7467 96.7078 38.9993 96.8846 38.2541C96.6235 38.9756 96.3254 39.6808 95.9113 40.3148C95.5066 40.9485 95.0216 41.5269 94.4683 42.0356C93.9132 42.5289 93.3061 42.9604 92.6578 43.3222C92.0085 43.6758 91.3276 43.9677 90.624 44.1941C89.7038 44.4947 88.7574 44.708 87.7973 44.8311V44.7867L87.8128 43.2533L87.818 42.7119L87.8394 40.5526C87.8394 40.4045 87.7573 40.3259 87.5969 40.3259H85.6998C85.5305 40.3259 85.4439 40.4 85.4439 40.5526L85.4757 42.7119V44.7859H85.4831V45.0126C85.3005 45.0171 85.1178 45.0208 84.9351 45.0208C84.6393 45.0208 84.3434 45.0156 84.0543 45.0052C83.6845 44.9941 83.3147 44.9682 82.9508 44.9385C82.669 44.9148 82.3732 44.8859 82.104 44.8489V46.9289H82.3044C82.5056 46.9289 82.6979 46.9289 82.9012 46.9208C83.3021 46.9074 83.7007 46.8889 84.0964 46.8548C84.5594 46.8178 85.0202 46.7652 85.4794 46.7067L85.4706 51.7489C85.4706 52.5973 85.6352 53.2687 85.9646 53.763C86.2738 54.244 86.726 54.6156 87.2574 54.8252C87.8236 55.0427 88.426 55.1503 89.0324 55.1422C89.3481 55.1415 89.6632 55.115 89.9746 55.063C90.2934 55.0104 90.5914 54.9496 90.8621 54.8808C90.9834 54.8519 91.0411 54.7667 91.0411 54.6319V53.6393C91.0411 53.4726 90.9494 53.4119 90.7593 53.4571C90.5656 53.508 90.3675 53.5407 90.1677 53.5548C89.9406 53.5733 89.7032 53.5837 89.4554 53.5837C88.9015 53.5837 88.4866 53.4519 88.2152 53.1852C87.9437 52.9185 87.8039 52.4237 87.8039 51.7037L87.7943 46.2763C88.9026 46.0194 89.9824 45.6519 91.0174 45.1793C91.596 44.9115 92.1548 44.6028 92.6896 44.2556Z" fill="#77B5FF"/>
<path d="M79.6996 46.8889C78.9611 46.5772 78.1929 46.3414 77.4069 46.1852C76.5741 46.0148 75.7418 45.8691 74.9101 45.7481C74.1397 45.64 73.3763 45.4864 72.624 45.2881C71.9337 45.103 71.3766 44.8439 70.9525 44.5111C70.5285 44.1783 70.3172 43.7165 70.3187 43.1259C70.3187 42.1946 70.705 41.5116 71.4776 41.077C72.2503 40.6425 73.2512 40.4249 74.4804 40.4244C75.923 40.4244 77.0265 40.6834 77.7907 41.2015C78.555 41.7195 78.9839 42.501 79.0776 43.5459C79.0949 43.698 79.1846 43.7738 79.3468 43.7733H81.3333C81.5212 43.7733 81.6025 43.6933 81.5774 43.5348C81.3802 41.9146 80.6694 40.7168 79.4452 39.9415C78.2209 39.1662 76.5795 38.7783 74.521 38.7778C73.207 38.7778 72.059 38.9558 71.0768 39.3118C70.0946 39.6679 69.3348 40.1825 68.7974 40.8555C68.26 41.5286 67.991 42.3459 67.9905 43.3074C67.9905 44.178 68.2018 44.8723 68.6243 45.3904C69.0719 45.9267 69.6462 46.3425 70.2951 46.6C71.0308 46.9004 71.7946 47.1267 72.5752 47.2755C73.403 47.4375 74.2331 47.5857 75.0654 47.72C75.8359 47.8395 76.5992 48.0024 77.3514 48.2081C78.0417 48.4012 78.5986 48.6795 79.0221 49.043C79.4457 49.4064 79.6569 49.9096 79.656 50.5526C79.656 51.2716 79.4587 51.8543 79.0643 52.3007C78.6698 52.7472 78.13 53.0726 77.4446 53.277C76.7568 53.4815 75.9679 53.5837 75.0779 53.5837C73.9336 53.5837 73.0096 53.4286 72.306 53.1185C71.6024 52.8084 71.0812 52.3597 70.7425 51.7726C70.4008 51.1859 70.1915 50.4946 70.1146 49.6985C70.1065 49.5467 70.0162 49.4711 69.8461 49.4711H67.8611C67.69 49.4711 67.6089 49.5469 67.6178 49.6985C67.6779 50.8867 68.0065 51.8914 68.6036 52.7126C69.2007 53.5338 70.0438 54.156 71.133 54.5793C72.2207 55.0039 73.5162 55.216 75.0195 55.2155C76.3848 55.2155 77.5906 55.0318 78.6368 54.6644C79.6831 54.297 80.508 53.7511 81.1115 53.0267C81.7125 52.2997 82.0133 51.3953 82.0137 50.3133C82.0137 49.4205 81.8025 48.7015 81.3799 48.1563C80.9379 47.5962 80.3591 47.1597 79.6996 46.8889Z" fill="#77B5FF"/>
<path d="M8.3298 53.4288L6.77668 52.5044L12.7259 64.2859L4.16891 51.8733L3.93372 51.9281C5.38626 54.7822 8.95771 61.7437 10.0479 63.3407C11.3865 65.3044 13.3383 67.4785 16.8454 67.9177C15.7952 66.4511 14.4913 64.2651 13.961 61.8926C11.2097 59.4192 9.2284 56.2392 8.3298 53.4288Z" fill="#77B5FF"/>
<path d="M15.5703 55.1333C15.4964 55.154 15.4224 55.1711 15.3484 55.1881L21.5314 62.2866L12.6467 55.2496C12.1887 55.1762 11.7368 55.0685 11.2948 54.9274C13.9706 60.1985 19.0708 64.1526 26.4725 65.34C25.2705 63.8608 24.2072 62.2739 23.296 60.5992C20.9648 59.0311 16.9896 56.16 15.5703 55.1333Z" fill="#77B5FF"/>
<path d="M8.31649 50.9082L10.905 52.4497C11.0714 52.5363 13.2288 53.6289 15.1865 52.9956C15.821 52.7847 16.3881 52.4086 16.8298 51.906C16.1206 51.7541 16.2197 51.7578 11.9486 50.0623L11.6313 50.1363L14.4632 51.5911L8.47254 50.8711L8.31649 50.9082Z" fill="#77B5FF"/>
<path d="M22.2317 47.6208C21.8043 47.6208 22.481 47.7022 15.9157 46.7267L20.5011 48.0185L13.4751 48.0926L13.3967 48.3148L16.625 49.6008C18.5361 50.3341 20.6712 49.82 22.2317 47.6208Z" fill="#77B5FF"/>
<path d="M25.4208 47.0029C25.3343 47.0363 25.2485 47.0681 25.1627 47.0985C30.0795 49.6466 34.5096 51.4889 39.754 53.2785C34.6982 52.2311 29.6365 50.8837 24.0445 48.7955C23.6343 49.3942 23.1511 49.9391 22.606 50.4177C24.7626 51.3437 28.7778 52.9481 34.2441 54.6222C38.9826 56.074 44.5124 56.4533 48.6822 53.7911C44.2706 52.7244 41.7301 50.817 40.9077 50.117C30.9951 48.9155 26.7395 47.5207 25.4208 47.0029Z" fill="#77B5FF"/>
<path d="M31.6 56.0548C27.1662 54.623 23.8773 53.3141 21.9248 52.4785C25.0229 54.923 28.1462 57.0667 31.3656 59.097C27.1803 57.2393 23.2339 55.2511 18.9672 52.6859C18.6182 53.1885 18.2016 53.6404 17.7292 54.0289C26.8364 60.5963 29.2082 62.9822 36.9066 60.4844C35.4355 59.537 33.4083 58.0407 31.6 56.0548Z" fill="#77B5FF"/>
<path d="M43.284 24.6334C36.8252 26.4178 30.4478 28.1756 25.8335 29.4482L37.8347 28.6134L19.1447 32.0134L18.4673 33.9393C22.4011 33.5437 31.8301 32.6674 35.7432 32.3045C36.1929 32.2319 41.9439 31.2074 43.284 24.6334Z" fill="#77B5FF"/>
<path d="M15.8617 34.8393L17.7706 29.4252C25.0629 27.42 60.3432 17.7082 67.651 15.6141C72.2268 14.3022 74.0854 9.56743 74.4138 4.79187L16.2951 26.3274L8.82532 46.3741C7.375 46.7496 3.43006 47.7704 2.00488 48.1482L0.82525 50.4341L11.2157 48.0156L15.8617 34.8393ZM3.16973 48.7904C6.17318 48.0134 7.59687 47.6548 10.1004 47.0371C11.1121 44.0326 13.2066 37.92 16.7315 27.9919C31.8552 23.283 49.0239 18.1615 64.2904 14.0741C49.4573 19.1193 32.5208 24.3519 17.4932 28.7963C14.2139 37.6045 11.8761 43.7111 10.4287 47.4126C8.6567 47.7593 7.14129 48.0593 3.16973 48.7904Z" fill="#77B5FF"/>
<path d="M63.9465 18.903C59.3677 20.1844 52.5369 22.0741 45.5737 24C45.5146 24.4528 45.4386 24.8864 45.3459 25.3007C52.0976 25.0541 58.4062 24.4444 66.5365 22.9822C58.6429 25.1674 51.8055 26.5037 44.7188 27.3607C44.1218 28.8728 43.2084 30.2392 42.04 31.3681C44.9865 30.98 49.5098 30.3607 56.314 29.3815L57.8553 29.1592C69.5311 27.4681 74.0995 22.3237 75.7598 19.5111C70.6094 20.5067 65.2725 19.2526 63.9465 18.903Z" fill="#77B5FF"/>
<path d="M75.9455 8.82816C79.8837 7.76668 84.8582 6.58742 88.8053 5.45779C84.6873 7.27409 79.7366 9.1615 75.1874 11.1222C73.9301 14.1667 71.8326 16.5067 68.6709 17.5563C68.9897 17.5911 69.3203 17.6215 69.6597 17.6467C71.2624 17.0808 81.3245 13.5259 87.1472 11.4133C91.4146 9.8652 92.4515 3.6015 92.7037 0.672607L76.4595 6.0615C76.3491 6.99404 76.1774 7.91828 75.9455 8.82816Z" fill="#77B5FF"/>
<path d="M34.5332 34.5829C28.2209 35.1681 19.9694 35.9444 17.6707 36.1881L17.5576 36.5089L29.5973 37.9481L16.869 38.4666L16.6043 39.217L27.9665 39.8718C28.1839 39.8896 33.063 40.1629 34.5332 34.5829Z" fill="#77B5FF"/>
<path d="M27.7979 42.0274L15.8565 41.3392L15.8188 41.4474L24.6199 43.3548L15.168 43.2859L14.7841 44.3755L22.0853 45.46C22.5209 45.4748 26.1501 45.4918 27.7979 42.0274Z" fill="#77B5FF"/>
<path d="M31.3612 42.1074C37.7075 43.3104 43.0059 44.0052 48.5713 44.5519C42.3943 44.6208 36.2861 44.4563 29.277 43.8296C28.8831 44.4637 28.3998 45.0375 27.8422 45.5333C30.0048 46.1652 34.1967 47.1422 41.5016 48.0133C50.6724 49.1059 55.7016 46.8171 58.106 45.08C53.2632 44.8356 49.8744 43.0756 48.5602 42.2704C43.0769 42.3059 36.7757 42.2696 31.3612 42.1074Z" fill="#77B5FF"/>
<path d="M37.3422 34.1237C37.1484 34.1844 36.9724 34.2348 36.8141 34.2756C36.7397 34.6607 36.6529 35.0274 36.5538 35.3756C43.7706 35.9733 50.77 36.0163 59.6717 35.0956C51.8321 36.5881 44.0835 37.4089 35.7891 37.3511C35.2841 38.3645 34.5835 39.2676 33.7278 40.0081C37.5996 40.0955 44.1634 40.183 52.744 40.0681C62.3135 39.9415 66.3131 35.6156 67.8315 33.1052C63.8732 33.6556 60.0903 32.9148 56.3761 31.5548C42.185 33.5978 38.0537 34.0511 37.3422 34.1237Z" fill="#77B5FF"/>
</g>
<defs>
<clipPath id="clip0_15_116">
<rect width="138" height="68" fill="white" transform="translate(0.5)"/>
</clipPath>
</defs>
</svg>
